HIERARCHY
ROOT Hips
{
	OFFSET 0.000000 0.000000 0.000000 
	CHANNELS 6 Xposition Yposition Zposition Zrotation Yrotation Xrotation
	JOINT LeftUpLeg
	{
		OFFSET 1.363060 -1.794630 0.839290 
		CHANNELS 3 Zrotation Yrotation Xrotation
		JOINT LeftLeg
		{
			OFFSET 2.448110 -6.726130 0.000000 
			CHANNELS 3 Zrotation Yrotation Xrotation
			JOINT LeftFoot
			{
				OFFSET 2.562200 -7.039590 0.000000 
				CHANNELS 3 Zrotation Yrotation Xrotation
				JOINT LeftToeBase
				{
					OFFSET 0.157640 -0.433110 2.322550 
					CHANNELS 3 Zrotation Yrotation Xrotation
					End Site
					{
						OFFSET 0.000000 0.000000 0.000000 
					}
				}
			}
		}
	}
	JOINT RightUpLeg
	{
		OFFSET -1.305520 -1.794630 0.839290 
		CHANNELS 3 Zrotation Yrotation Xrotation
		JOINT RightLeg
		{
			OFFSET -2.542530 -6.985550 0.000000 
			CHANNELS 3 Zrotation Yrotation Xrotation
			JOINT RightFoot
			{
				OFFSET -2.568260 -7.056230 0.000000 
				CHANNELS 3 Zrotation Yrotation Xrotation
				JOINT RightToeBase
				{
					OFFSET -0.164730 -0.452590 2.363150 
					CHANNELS 3 Zrotation Yrotation Xrotation
					End Site
					{
						OFFSET 0.000000 0.000000 0.000000 
					}
				}
			}
		}
	}
	JOINT Spine
	{
		OFFSET 0.028270 2.035590 -0.193380 
		CHANNELS 3 Zrotation Yrotation Xrotation
		JOINT Spine1
		{
			OFFSET 0.056720 2.048850 -0.042750 
			CHANNELS 3 Zrotation Yrotation Xrotation
			JOINT Neck1
			{
				OFFSET -0.054170 1.746240 0.172020 
				CHANNELS 3 Zrotation Yrotation Xrotation
				JOINT Head
				{
					OFFSET 0.104070 1.761360 -0.123970 
					CHANNELS 3 Zrotation Yrotation Xrotation
					End Site
					{
						OFFSET 0.000000 0.000000 0.000000 
					}
				}
			}
			JOINT LeftArm
			{
				OFFSET 3.362410 1.200890 -0.311210 
				CHANNELS 3 Zrotation Yrotation Xrotation
				JOINT LeftForeArm
				{
					OFFSET 4.983000 -0.000000 -0.000000 
					CHANNELS 3 Zrotation Yrotation Xrotation
					JOINT LeftHand
					{
						OFFSET 3.483560 -0.000000 -0.000000 
						CHANNELS 3 Zrotation Yrotation Xrotation
						JOINT LeftHandIndex1
						{
							OFFSET 0.715260 -0.000000 -0.000000 
							CHANNELS 3 Zrotation Yrotation Xrotation
							End Site
							{
								OFFSET 0.000000 0.000000 0.000000 
							}
						}
					}
				}
			}
			JOINT RightArm
			{
				OFFSET -3.136600 1.374050 -0.404650 
				CHANNELS 3 Zrotation Yrotation Xrotation
				JOINT RightForeArm
				{
					OFFSET -5.241900 -0.000000 -0.000000 
					CHANNELS 3 Zrotation Yrotation Xrotation
					JOINT RightHand
					{
						OFFSET -3.444170 -0.000000 -0.000000 
						CHANNELS 3 Zrotation Yrotation Xrotation
						JOINT RightHandIndex1
						{
							OFFSET -0.622530 -0.000000 -0.000000 
							CHANNELS 3 Zrotation Yrotation Xrotation
							End Site
							{
								OFFSET 0.000000 0.000000 0.000000 
							}
						}
					}
				}
			}
		}
	}
}
MOTION
Frames: 6
Frame Time: 0.041667
0.383159 17.458094 -1.877135 1.678643 -3.784379 5.613000 -22.501015 -6.773049 -20.689499 2.103779 10.695410 32.714784 -0.206750 3.676184 -9.175402 0.515100 -4.600200 -12.771700 18.735967 13.343260 -20.643331 -3.384909 -11.190486 34.886727 0.927771 -8.044065 -11.593335 -0.554600 4.770400 -13.254800 0.523360 3.452087 -0.838710 -0.412333 1.601764 -0.835758 3.916764 -6.379367 4.285780 2.007600 -3.113600 0.737900 -61.285600 -53.324778 36.719817 39.741406 -42.024389 -16.064188 -0.908385 -0.899161 -62.864002 -7.125000 0.000000 0.000000 51.930624 55.548838 16.210322 -27.938823 34.337616 -7.549282 0.015964 -0.782371 -64.836413 7.125000 0.000000 0.000000 
0.383853 17.455517 -1.877630 1.757552 -3.778446 5.593911 -22.602193 -6.725900 -20.633039 2.095267 10.675719 32.670366 -0.197292 3.612093 -9.079811 0.494800 -4.509800 -12.515400 18.628832 13.349121 -20.693948 -3.404607 -11.222924 34.985112 0.870622 -7.821480 -11.742473 -0.528700 4.659500 -12.939800 0.501149 3.454848 -0.846421 -0.461551 1.602401 -0.876024 3.901351 -6.390700 4.315304 1.981400 -3.119900 0.747400 -61.265395 -53.301236 36.679585 39.764869 -42.064970 -16.131602 -0.927280 -0.953890 -62.742420 -7.125000 0.000000 0.000000 51.987679 55.519170 16.160507 -27.996210 34.387987 -7.579550 0.018892 -0.783652 -64.796580 7.125000 0.000000 0.000000 
0.383953 17.453832 -1.878522 1.755863 -3.791919 5.587455 -22.604477 -6.727906 -20.615999 2.096999 10.676640 32.676544 -0.202572 3.629422 -9.064502 0.480800 -4.446800 -12.337100 18.623931 13.336568 -20.718091 -3.411742 -11.234042 35.018706 0.858671 -7.763777 -11.733552 -0.516400 4.606000 -12.788000 0.495838 3.462522 -0.839786 -0.480413 1.606191 -0.865054 3.911791 -6.395744 4.339562 1.988200 -3.122500 0.764200 -61.184504 -53.290626 36.684158 39.884427 -42.147978 -16.227517 -0.930390 -0.959248 -62.846033 -7.125000 0.000000 0.000000 51.953269 55.524546 16.098624 -28.045977 34.435211 -7.606488 0.019299 -0.783797 -64.749118 7.125000 0.000000 0.000000 
0.382763 17.454129 -1.878919 1.699357 -3.782514 5.583208 -22.538139 -6.706406 -20.621539 2.096317 10.676997 32.672114 -0.210962 3.657949 -9.040759 0.483000 -4.456700 -12.365200 18.703452 13.333630 -20.730463 -3.425052 -11.251945 35.082888 0.866143 -7.812566 -11.774887 -0.527500 4.654500 -12.925700 0.507368 3.444677 -0.833156 -0.467204 1.597846 -0.856652 3.918688 -6.389764 4.347180 1.998900 -3.119900 0.760700 -61.041338 -53.217591 36.683088 40.098698 -42.297598 -16.383733 -0.930483 -0.939910 -63.043267 -7.125000 0.000000 0.000000 51.932995 55.493534 16.193936 -28.159595 34.546676 -7.668054 0.022510 -0.788077 -64.838770 7.125000 0.000000 0.000000 
0.382168 17.455319 -1.880208 1.699439 -3.789702 5.590390 -22.544554 -6.680843 -20.643485 2.097598 10.679599 32.678136 -0.210202 3.649583 -9.017106 0.483600 -4.459300 -12.372400 18.709288 13.360754 -20.743543 -3.441454 -11.273918 35.157162 0.862027 -7.789709 -11.756614 -0.527300 4.653600 -12.923200 0.505977 3.440155 -0.834316 -0.464896 1.595525 -0.869480 3.933346 -6.392188 4.363136 2.012300 -3.121400 0.766700 -60.936109 -53.181807 36.681900 40.268753 -42.427999 -16.546706 -0.956252 -0.936944 -63.217527 -7.125000 0.000000 0.000000 51.930303 55.461638 16.224140 -28.265886 34.647047 -7.723530 0.025813 -0.787440 -64.895046 7.125000 0.000000 0.000000 
0.381177 17.457698 -1.880604 1.727092 -3.808123 5.612519 -22.588654 -6.658064 -20.689869 2.100175 10.685296 32.691346 -0.241338 3.769832 -8.992331 0.529700 -4.663700 -12.951800 18.684076 13.366006 -20.749239 -3.456148 -11.291045 35.216064 0.860753 -7.742880 -11.612870 -0.531200 4.670300 -12.970600 0.502634 3.442364 -0.839445 -0.450090 1.595846 -0.882035 3.935855 -6.385310 4.380987 2.009900 -3.118400 0.767900 -60.833925 -53.114913 36.693750 40.449411 -42.565902 -16.712071 -0.974600 -0.938606 -63.280616 -7.125000 0.000000 0.000000 51.963139 55.438874 16.271907 -28.363565 34.737207 -7.774341 0.030502 -0.787702 -64.917757 7.125000 0.000000 0.000000 
